<?xml version="1.0" encoding="UTF-8" standalone="no"?>
<!-- Created with Inkscape (http://www.inkscape.org/) -->

<svg
   width="23.125481mm"
   height="20.214174mm"
   viewBox="0 0 23.125481 20.214174"
   version="1.1"
   id="svg1"
   inkscape:version="1.3.2 (091e20ef0f, 2023-11-25, custom)"
   sodipodi:docname="dibujo-1.svg"
   xmlns:inkscape="http://www.inkscape.org/namespaces/inkscape"
   xmlns:sodipodi="http://sodipodi.sourceforge.net/DTD/sodipodi-0.dtd"
   xmlns="http://www.w3.org/2000/svg"
   xmlns:svg="http://www.w3.org/2000/svg">
  <sodipodi:namedview
     id="namedview1"
     pagecolor="#ffffff"
     bordercolor="#666666"
     borderopacity="1.0"
     inkscape:showpageshadow="2"
     inkscape:pageopacity="0.0"
     inkscape:pagecheckerboard="0"
     inkscape:deskcolor="#d1d1d1"
     inkscape:document-units="mm"
     inkscape:zoom="1.5037598"
     inkscape:cx="150.28996"
     inkscape:cy="49.874986"
     inkscape:window-width="1920"
     inkscape:window-height="1048"
     inkscape:window-x="0"
     inkscape:window-y="0"
     inkscape:window-maximized="1"
     inkscape:current-layer="layer1" />
  <defs
     id="defs1">
    <rect
       x="286.61493"
       y="452.19986"
       width="150.28996"
       height="130.33997"
       id="rect1" />
  </defs>
  <g
     inkscape:label="Capa 1"
     inkscape:groupmode="layer"
     id="layer1"
     transform="translate(-61.823134,-133.34385)">
    <text
       xml:space="preserve"
       transform="scale(0.26458333)"
       id="text1"
       style="font-size:8px;line-height:1.25;font-family:'Nimbus Sans Narrow';-inkscape-font-specification:'Nimbus Sans Narrow';letter-spacing:0px;word-spacing:0px;white-space:pre;shape-inside:url(#rect1)" />
    <path
       style="opacity:0.75419;fill:#808080;stroke-width:0.2;stroke-linecap:round;stroke-linejoin:round"
       id="path2"
       d="m 207.14689,127.45337 c -0.29675,0.0314 -0.59349,0.0629 -0.89024,0.0944 0,0 -0.0426,0.0312 -0.0426,0.0312 v 0 c 0.23816,0.0114 0.47631,0.0228 0.71447,0.0342 z" />
    <g
       id="g13">
      <path
         style="opacity:0.75419;fill:#3594ba;fill-opacity:1;stroke-width:0.2;stroke-linecap:round;stroke-linejoin:round"
         id="path1"
         d="m 69.855358,138.01368 c 0.582441,-0.78322 1.377894,-1.35131 2.178659,-1.89007 0.784673,-0.493 1.616153,-0.92299 2.507326,-1.18799 0.174585,-0.0519 0.706087,-0.17955 0.529927,-0.13325 -0.384384,0.10103 -0.769745,0.19829 -1.154619,0.29743 0.713599,-0.1077 1.417768,-0.0258 2.093541,0.21491 0.603273,0.27885 0.893145,0.7793 1.073281,1.39329 0.177754,0.80508 0.05258,1.60644 -0.162016,2.38865 -0.209641,0.73045 -0.583688,1.37743 -1.079195,1.94758 -0.479076,0.51711 -1.08025,0.86573 -1.729117,1.1225 -0.747898,0.22876 -0.958321,0.28663 1.385386,-0.31517 0.101164,-0.026 -0.205257,0.0395 -0.308784,0.0533 -0.316322,0.0423 -0.633944,0.0422 -0.952268,0.0421 -0.460529,-0.009 -0.920845,-0.0266 -1.381421,-0.0341 0.116691,0.12124 -0.17713,-0.0512 -0.163846,0.002 0.02284,0.0907 0.198294,0.22144 0.111914,0.25728 -1.613068,0.66937 -2.465419,0.46143 -1.444897,0.40808 0.155149,-0.008 0.31063,-0.006 0.465938,-0.009 0.848291,0.0224 1.812323,0.13412 2.449037,0.76615 0.111652,0.11085 0.191701,0.24952 0.287552,0.37427 0.05926,0.14738 0.137063,0.28861 0.177786,0.44216 0.180987,0.68237 0.02685,1.45012 -0.267737,2.07681 -0.07761,0.16509 -0.179364,0.3177 -0.269046,0.47655 -0.680147,0.97609 -1.504483,1.38505 -2.626462,1.6673 2.972573,-0.6763 1.552959,-0.32595 0.839752,-0.34661 -0.280473,-0.008 -0.540703,-0.061 -0.811099,-0.12991 -0.64694,-0.17273 -1.097159,-0.59156 -1.490646,-1.11087 -0.307063,-0.45424 -0.55879,-0.94583 -0.751002,-1.45915 -0.03776,-0.11317 -0.08341,-0.22661 -0.08599,-0.34703 -0.003,-0.003 0.03172,0.0469 0.014,0.041 -0.677221,-0.22652 0.04578,-0.26842 -1.19339,0.22234 0,0 0.05255,-0.005 0.05255,-0.005 v 0 c -1.081047,0.41927 -0.425539,0.3761 -1.040069,0.15939 -0.0078,-0.003 0.02347,0.0709 0.01421,0.074 0.03994,0.13018 0.08642,0.25875 0.136217,0.38538 0.2289,0.51992 0.491518,1.02662 0.80377,1.50166 0.40915,0.55538 0.862771,1.03313 1.544624,1.23807 1.355649,0.43536 2.664404,-0.0185 4.022249,-0.38433 1.156326,-0.34682 1.923743,-0.80374 2.606364,-1.83151 0.08899,-0.16888 0.190289,-0.33184 0.266978,-0.50667 0.296718,-0.67641 0.436906,-1.50096 0.249028,-2.22742 -0.04423,-0.17101 -0.128522,-0.32906 -0.192785,-0.49357 -0.101186,-0.14268 -0.183539,-0.30079 -0.303555,-0.42804 -0.648636,-0.6877 -1.656724,-0.82772 -2.547744,-0.87643 -0.04308,-7.4e-4 -0.690595,-0.0194 -0.790484,6.9e-4 -0.914492,0.18399 -2.382273,-0.20552 -2.192968,0.7969 0.01044,0.0551 0.197837,-0.0591 0.167966,0.0132 0.470102,0.005 0.940188,0.0123 1.410171,0.0245 1.325646,0.0212 2.630652,-0.18875 3.875751,-0.70797 0.638357,-0.29362 1.226508,-0.67406 1.684804,-1.21585 0.476354,-0.60271 0.812892,-1.28018 1.012204,-2.02483 0.211903,-0.81968 0.340111,-1.65844 0.110134,-2.49147 -0.223533,-0.67155 -0.546216,-1.26645 -1.246301,-1.52714 -0.72946,-0.24338 -1.480787,-0.36501 -2.250085,-0.25293 -0.222765,0.05 -1.89016,0.38029 -2.578243,0.61077 -0.859016,0.28774 -1.653608,0.73337 -2.414264,1.21927 -0.808226,0.55381 -1.588237,1.14672 -2.176171,1.94241 z" />
      <g
         id="g5"
         transform="translate(-18.652535,-5.248195)">
        <path
           style="opacity:0.75419;fill:#612cc3;fill-opacity:0.675124;stroke-width:0.7;stroke-linecap:round;stroke-linejoin:round;stroke-dasharray:none"
           id="path3"
           d="m 96.300598,145.07749 c -0.612298,0.83266 -1.247526,1.64805 -1.873006,2.47076 -0.724072,0.97662 -1.459304,1.94468 -2.202066,2.90714 -0.668597,0.83692 -1.268868,1.72319 -1.848922,2.6226 -0.521684,0.82425 -1.024033,1.66054 -1.528657,2.49529 -0.412072,0.69851 -0.830281,1.3932 -1.264703,2.07808 -0.185131,0.28946 -0.374544,0.57628 -0.571198,0.85805 0.03835,0.0156 -0.04527,0.035 -0.03298,0.0511 0.470392,0.61748 0.527624,-0.0484 1.620237,-0.68262 0.09466,-0.0549 0.185171,-0.11674 0.27836,-0.17414 0.0757,-0.0439 0.302623,-0.17596 0.227111,-0.13173 -0.336244,0.197 -0.678776,0.38356 -1.009312,0.58998 -0.129363,0.0808 0.269444,-0.14301 0.405133,-0.21266 0.157734,-0.081 0.316026,-0.16085 0.475107,-0.23913 0.541472,-0.26646 0.64638,-0.3104 1.211149,-0.57109 1.470527,-0.66441 2.980547,-1.23587 4.50941,-1.75004 0.851037,-0.27863 1.718225,-0.50743 2.59916,-0.66844 0.440481,-0.0354 0.617154,-0.28711 0.940525,-0.59997 0,0 -0.04421,0.0288 -0.04421,0.0288 v 0 c 0.131373,-0.077 1.168415,-0.59251 0.381079,-0.39544 -0.910193,0.19121 -1.81184,0.4245 -2.69516,0.71672 -1.526791,0.51306 -3.036652,1.07797 -4.509947,1.73036 -1.361916,0.61881 -2.704026,1.27308 -3.9717,2.0747 -0.833911,0.49451 -0.106619,-0.12984 1.015495,-0.57995 0.202639,-0.0813 0.01566,0.31727 0.113146,0.15106 0.174241,-0.27912 0.347734,-0.5587 0.518454,-0.83999 0.40803,-0.67179 0.791789,-1.35698 1.175512,-2.04288 0.471098,-0.83005 0.950791,-1.65556 1.464495,-2.46018 0.577294,-0.89644 1.186098,-1.77195 1.847395,-2.60899 0.736235,-0.95953 1.466114,-1.92371 2.180958,-2.89934 0.622593,-0.82761 1.254693,-1.64791 1.87715,-2.47559 z" />
        <path
           style="opacity:0.75419;fill:#612cc3;fill-opacity:0.675124;stroke-width:0.7;stroke-linecap:round;stroke-linejoin:round;stroke-dasharray:none"
           id="path4"
           d="m 97.346766,145.18541 c 0.454917,-0.33414 0.935792,-0.63217 1.422188,-0.91794 0.170604,-0.10024 0.318024,-0.27391 0.514684,-0.29576 0.185084,-0.0206 -0.31772,0.19435 -0.476578,0.29152 0.975794,-0.53215 1.99868,-0.96827 3.02518,-1.39104 0.19365,-0.0798 0.39274,-0.14724 0.5814,-0.23819 0.21419,-0.10326 0.41679,-0.22901 0.62519,-0.34351 0.1491,-0.0946 0.29821,-0.18914 0.44732,-0.28371 0,0 0.0877,-0.0697 0.0877,-0.0697 v 0 c 0.009,-0.03 0.0182,-0.06 0.0273,-0.09 -0.38121,-0.0254 -0.12936,-0.0342 -0.75799,0.22763 -1.03355,0.43045 -2.06292,0.87503 -3.054176,1.39716 -1.210021,0.6836 -2.456989,1.33189 -3.574319,2.16578 z" />
        <path
           style="opacity:0.75419;fill:#612cc3;fill-opacity:0.675124;stroke-width:0.7;stroke-linecap:round;stroke-linejoin:round;stroke-dasharray:none"
           id="path5"
           d="m 92.471064,151.22215 c 0.56927,-0.19666 1.147715,-0.36486 1.726597,-0.53048 0.778637,-0.21656 1.561216,-0.41831 2.339941,-0.63458 0.732385,-0.19909 1.459256,-0.41737 2.187601,-0.63051 0.27368,-0.0847 0.551884,-0.15261 0.828863,-0.2251 0.274582,-0.0665 0.02363,-5.3e-4 0.594534,-0.50253 0,0 -0.0764,0.0556 -0.0764,0.0556 v 0 c 0.71621,-0.50171 0.96192,-0.63165 0.68084,-0.48142 -0.30446,0.11042 -0.61605,0.20015 -0.923804,0.30064 -0.742436,0.23203 -1.484741,0.465 -2.234972,0.67092 -0.779764,0.21724 -1.564336,0.41641 -2.343499,0.63578 -0.602552,0.17484 -1.205037,0.35291 -1.793436,0.57159 z" />
      </g>
      <path
         style="opacity:0.75419;fill:#2cc35e;fill-opacity:0.607659;stroke-width:0.7;stroke-linecap:round;stroke-linejoin:round;stroke-dasharray:none"
         id="path6"
         d="m 70.578599,138.51151 c -0.943058,0.75561 -1.68168,1.65394 -2.196666,2.72929 -0.337683,0.73062 -0.398814,1.49357 -0.289992,2.27967 0.136175,0.71128 0.399602,1.13749 0.99515,1.54093 0.653885,0.34558 1.178265,0.27423 1.808387,-0.0678 0.856899,-0.66936 1.793138,-1.46262 1.857875,-2.60096 -0.03216,-0.4432 -0.268034,-0.71327 -0.659232,-0.88571 -0.364509,-0.14231 -0.707136,-0.099 -1.057597,0.0522 -0.837723,0.54359 -1.617365,1.34933 -2.16091,2.1549 0.09401,-0.03 -0.450402,0.60497 -0.288822,0.60348 0.06838,-6.4e-4 0.330036,-0.13775 0.379816,-0.16219 0.03713,-0.019 0.07451,-0.037 0.111783,-0.0555 0,0 0.03803,-0.0366 0.03803,-0.0366 v 0 c 0.02745,-0.0391 0.05491,-0.0781 0.08237,-0.1172 0.33807,-0.38225 0.68585,-0.74765 0.926789,-1.20391 0.417372,-0.57026 0.192687,-0.24106 -0.759584,0.71003 -0.184726,0.18449 0.855939,-0.84166 0.724159,-0.63493 0.312896,-0.18256 0.631487,-0.25285 0.991806,-0.17424 0.345522,0.10809 0.560651,0.31967 0.574661,0.70015 -0.03026,0.27976 -0.0889,0.51711 -0.234476,0.76374 -0.05537,0.0938 -0.269707,0.33867 -0.186656,0.2682 0.183099,-0.15539 1.225822,-1.20912 0.502104,-0.5166 -0.573905,0.36767 -1.054981,0.47823 -1.694605,0.17698 -0.552335,-0.35656 -0.807975,-0.79801 -0.918881,-1.44774 -0.0899,-0.767 0.0039,-1.51202 0.34032,-2.21581 0.188499,-0.37243 0.384937,-0.72399 0.640858,-1.05562 0.07548,-0.0977 0.327541,-0.36907 0.237774,-0.28422 -0.205426,0.19418 -1.143871,1.14979 -0.584282,0.61463 z" />
      <g
         id="g12"
         transform="matrix(0.65071579,0,0,0.72064725,-1.604214,30.219708)">
        <path
           style="opacity:0.75419;fill:#c32cb9;fill-opacity:0.607659;stroke-width:0.7;stroke-linecap:round;stroke-linejoin:round;stroke-dasharray:none"
           id="path11"
           d="m 104.60074,144.30645 c -1.45402,0.72105 -2.71873,1.78155 -3.95553,2.8192 -1.007335,0.92135 -2.137095,1.86105 -2.770484,3.10351 -0.334444,0.65606 -0.30503,0.8541 -0.401529,1.55326 0.09403,0.60856 0.04083,0.87517 0.497036,1.3536 0.416049,0.43631 1.009057,0.66369 1.585129,0.77424 2.364528,0.45375 1.769368,0.42367 3.578768,0.13727 2.60567,-0.74584 4.88949,-2.26272 6.87658,-4.07657 0.34713,-0.31687 0.67218,-0.65713 1.00827,-0.98569 0.85666,-0.97652 1.76654,-2.09977 1.65552,-3.48569 -0.0463,-0.57751 -0.16586,-0.70236 -0.41386,-1.19108 -0.11971,-0.13094 -0.22426,-0.27755 -0.35914,-0.3928 -0.69233,-0.59159 -1.98935,-0.91835 -2.898,-0.78785 -0.48219,0.0693 -0.84066,0.22758 -1.29715,0.39308 -0.99521,0.4608 -2.10983,0.88648 -2.77718,1.81193 -1.43939,1.99611 0.69805,-0.51123 -0.85237,1.24461 0,0 0.0488,0.02 0.0488,0.02 v 0 c 1.26977,-0.78831 0.15807,-0.16605 1.78345,-0.83755 1.13262,-0.46792 2.14603,-1.16272 3.27624,-1.63484 0.45516,-0.16884 0.76552,-0.31747 1.24596,-0.3758 0.17242,-0.0209 0.66338,0.0966 0.52104,-0.003 -0.27839,-0.1946 -0.63451,-0.26015 -0.97031,-0.31119 -0.16364,-0.0249 0.30482,0.13472 0.43977,0.23054 0.14436,0.10251 0.26072,0.23961 0.39108,0.35941 0.29757,0.45302 0.42745,0.55009 0.51201,1.12077 0.19975,1.34798 -0.64064,2.46146 -1.46804,3.42321 -0.32771,0.34364 -0.63936,0.70333 -0.98312,1.03091 -1.60125,1.52589 -3.4632,2.84903 -5.54616,3.62856 -0.44859,0.16788 -0.91898,0.27041 -1.37847,0.40562 -0.41956,0.0536 -0.85771,0.0262 -1.25867,0.1609 -0.0852,0.0286 0.26847,0.21025 0.17898,0.20177 -0.76954,-0.073 -1.627556,-0.55696 -1.945014,-1.28739 -0.09032,-0.2078 -0.09419,-0.44327 -0.14129,-0.6649 0.08142,-0.69322 0.04073,-0.83378 0.367212,-1.49068 0.613625,-1.23464 1.713692,-2.14759 2.702532,-3.06558 1.20398,-0.99296 2.4312,-1.9592 3.79687,-2.72426 z" />
        <path
           style="opacity:0.75419;fill:#c32cb9;fill-opacity:0.607659;stroke-width:0.7;stroke-linecap:round;stroke-linejoin:round;stroke-dasharray:none"
           id="path12"
           d="m 104.22363,150.26499 c 1.00518,0.8177 1.94166,1.71269 2.86655,2.61911 0.93504,0.95933 1.85841,1.93014 2.77821,2.90417 0.50655,0.57222 0.49242,0.53426 1.28349,0.52721 0,0 0.0527,0.003 0.0527,0.003 v 0 c 0.0971,-0.0148 0.59059,-0.0565 0.6613,-0.1592 0.0281,-0.0408 -0.43215,-0.45532 -0.46998,-0.49061 -0.97668,-0.93885 -1.93187,-1.9003 -2.95088,-2.7941 -0.95012,-0.84764 -1.89903,-1.70942 -2.92756,-2.46029 z" />
      </g>
    </g>
  </g>
</svg>
